<?xml version="1.0" encoding="UTF-8"?>
<!-- Mandala watermark — 12-petal rotating wreath. Used as a faint hero overlay. -->
<svg xmlns="http://www.w3.org/2000/svg" viewBox="0 0 400 400" width="400" height="400">
  <g fill="none" stroke="#d4ae6b" stroke-width="0.5" opacity="0.6">
    <circle cx="200" cy="200" r="180"/>
    <circle cx="200" cy="200" r="140"/>
    <circle cx="200" cy="200" r="100"/>
    <circle cx="200" cy="200" r="60"/>
  </g>
  <g fill="none" stroke="#b8924a" stroke-width="0.6" opacity="0.5">
    <!-- 12 radial petals -->
    <g id="petal">
      <path d="M 200 40 Q 215 100 200 160 Q 185 100 200 40 Z"/>
    </g>
    <use href="#petal" transform="rotate(30 200 200)"/>
    <use href="#petal" transform="rotate(60 200 200)"/>
    <use href="#petal" transform="rotate(90 200 200)"/>
    <use href="#petal" transform="rotate(120 200 200)"/>
    <use href="#petal" transform="rotate(150 200 200)"/>
    <use href="#petal" transform="rotate(180 200 200)"/>
    <use href="#petal" transform="rotate(210 200 200)"/>
    <use href="#petal" transform="rotate(240 200 200)"/>
    <use href="#petal" transform="rotate(270 200 200)"/>
    <use href="#petal" transform="rotate(300 200 200)"/>
    <use href="#petal" transform="rotate(330 200 200)"/>
  </g>
  <circle cx="200" cy="200" r="6" fill="#b8924a" opacity="0.7"/>
</svg>
